<?xml version="1.0" encoding="UTF-8" standalone="no"?>
<!DOCTYPE svg PUBLIC "-//W3C//DTD SVG 1.1//EN"
 "http://www.w3.org/Graphics/SVG/1.1/DTD/svg11.dtd">
<!-- Generated by graphviz version 7.1.0 (0)
 -->
<!-- Title: G Pages: 1 -->
<svg width="634pt" height="1002pt"
 viewBox="0.00 0.00 633.92 1002.03" xmlns="http://www.w3.org/2000/svg" xmlns:xlink="http://www.w3.org/1999/xlink">
<g id="graph0" class="graph" transform="scale(1 1) rotate(0) translate(4 998.03)">
<title>G</title><style>.edge>path:hover{stroke-width:8}</style>
<polygon fill="white" stroke="none" points="-4,4 -4,-998.03 629.92,-998.03 629.92,4 -4,4"/>
<!-- markdown_to_json -->
<g id="node1" class="node">
<title>markdown_to_json</title><style>.edge>path:hover{stroke-width:8}</style>
<ellipse fill="#c24747" stroke="black" cx="420.4" cy="-965.04" rx="64.33" ry="18"/>
<text text-anchor="middle" x="420.4" y="-962.54" font-family="Helvetica,sans-Serif" font-size="10.00" fill="#ffffff">markdown_to_json</text>
</g>
<!-- plt_generator_data_featview -->
<g id="node5" class="node">
<title>plt_generator_data_featview</title><style>.edge>path:hover{stroke-width:8}</style>
<ellipse fill="#3db8b8" stroke="black" cx="283.4" cy="-698.65" rx="59.29" ry="28.98"/>
<text text-anchor="middle" x="283.4" y="-707.15" font-family="Helvetica,sans-Serif" font-size="10.00" fill="#000000">plt_generator.</text>
<text text-anchor="middle" x="283.4" y="-696.15" font-family="Helvetica,sans-Serif" font-size="10.00" fill="#000000">data.</text>
<text text-anchor="middle" x="283.4" y="-685.15" font-family="Helvetica,sans-Serif" font-size="10.00" fill="#000000">featview</text>
</g>
<!-- markdown_to_json&#45;&gt;plt_generator_data_featview -->
<g id="edge1" class="edge">
<title>markdown_to_json&#45;&gt;plt_generator_data_featview</title><style>.edge>path:hover{stroke-width:8}</style>
<path fill="none" stroke="black" d="M423.78,-947.05C429.28,-915.77 437.9,-847.36 420.4,-793.63"/>
<path fill="none" stroke="black" d="M420.4,-791.63C412.82,-772.24 369.69,-745.22 333.82,-725.48"/>
<polygon fill="#c24747" stroke="black" points="335.72,-722.53 325.26,-720.84 332.38,-728.68 335.72,-722.53"/>
</g>
<!-- plt_generator_data_langview -->
<g id="node7" class="node">
<title>plt_generator_data_langview</title><style>.edge>path:hover{stroke-width:8}</style>
<ellipse fill="#3db8b8" stroke="black" cx="420.4" cy="-698.65" rx="59.29" ry="28.98"/>
<text text-anchor="middle" x="420.4" y="-707.15" font-family="Helvetica,sans-Serif" font-size="10.00" fill="#000000">plt_generator.</text>
<text text-anchor="middle" x="420.4" y="-696.15" font-family="Helvetica,sans-Serif" font-size="10.00" fill="#000000">data.</text>
<text text-anchor="middle" x="420.4" y="-685.15" font-family="Helvetica,sans-Serif" font-size="10.00" fill="#000000">langview</text>
</g>
<!-- markdown_to_json&#45;&gt;plt_generator_data_langview -->
<g id="edge2" class="edge">
<title>markdown_to_json&#45;&gt;plt_generator_data_langview</title><style>.edge>path:hover{stroke-width:8}</style>
<path fill="none" stroke="black" d="M420.4,-791.63C414.93,-774.85 414.18,-755.42 415.1,-738.75"/>
<polygon fill="#c24747" stroke="black" points="418.55,-739.47 415.84,-729.23 411.58,-738.92 418.55,-739.47"/>
</g>
<!-- pandas -->
<g id="node2" class="node">
<title>pandas</title><style>.edge>path:hover{stroke-width:8}</style>
<ellipse fill="#80c040" stroke="black" cx="448.4" cy="-489.24" rx="30.72" ry="18"/>
<text text-anchor="middle" x="448.4" y="-486.74" font-family="Helvetica,sans-Serif" font-size="10.00" fill="#000000">pandas</text>
</g>
<!-- plt_generator_master_table -->
<g id="node12" class="node">
<title>plt_generator_master_table</title><style>.edge>path:hover{stroke-width:8}</style>
<ellipse fill="#2bacac" stroke="black" cx="268.4" cy="-309.05" rx="59.29" ry="21.43"/>
<text text-anchor="middle" x="268.4" y="-312.05" font-family="Helvetica,sans-Serif" font-size="10.00" fill="#000000">plt_generator.</text>
<text text-anchor="middle" x="268.4" y="-301.05" font-family="Helvetica,sans-Serif" font-size="10.00" fill="#000000">master_table</text>
</g>
<!-- pandas&#45;&gt;plt_generator_master_table -->
<g id="edge3" class="edge">
<title>pandas&#45;&gt;plt_generator_master_table</title><style>.edge>path:hover{stroke-width:8}</style>
<path fill="none" stroke="black" d="M467.58,-474.77C489.91,-457.33 521.98,-425.66 507.4,-396.25"/>
<path fill="none" stroke="black" d="M507.4,-394.25C491.28,-361.74 396.7,-336.17 331.47,-322.09"/>
<polygon fill="#80c040" stroke="black" points="332.45,-318.72 321.94,-320.07 331,-325.57 332.45,-318.72"/>
</g>
<!-- plt_generator_cli -->
<g id="node3" class="node">
<title>plt_generator_cli</title><style>.edge>path:hover{stroke-width:8}</style>
<ellipse fill="#49acac" stroke="black" cx="139.4" cy="-21.21" rx="59.29" ry="21.43"/>
<text text-anchor="middle" x="139.4" y="-24.21" font-family="Helvetica,sans-Serif" font-size="10.00" fill="#000000">plt_generator.</text>
<text text-anchor="middle" x="139.4" y="-13.21" font-family="Helvetica,sans-Serif" font-size="10.00" fill="#000000">cli</text>
</g>
<!-- plt_generator_data -->
<g id="node4" class="node">
<title>plt_generator_data</title><style>.edge>path:hover{stroke-width:8}</style>
<ellipse fill="#24d0d0" stroke="black" cx="420.4" cy="-612.44" rx="59.29" ry="21.43"/>
<text text-anchor="middle" x="420.4" y="-615.44" font-family="Helvetica,sans-Serif" font-size="10.00" fill="#000000">plt_generator.</text>
<text text-anchor="middle" x="420.4" y="-604.44" font-family="Helvetica,sans-Serif" font-size="10.00" fill="#000000">data</text>
</g>
<!-- plt_generator_data&#45;&gt;plt_generator_master_table -->
<g id="edge4" class="edge">
<title>plt_generator_data&#45;&gt;plt_generator_master_table</title><style>.edge>path:hover{stroke-width:8}</style>
<path fill="none" stroke="black" d="M469.4,-554.23C463.13,-521.75 502.74,-522.98 507.4,-490.24"/>
<path fill="none" stroke="black" d="M507.4,-488.24C513.15,-447.76 525.55,-432.88 507.4,-396.25"/>
</g>
<!-- plt_generator_sync_bidirectional_sync -->
<g id="node14" class="node">
<title>plt_generator_sync_bidirectional_sync</title><style>.edge>path:hover{stroke-width:8}</style>
<ellipse fill="#40bfc0" stroke="black" cx="188.4" cy="-489.24" rx="74.49" ry="28.98"/>
<text text-anchor="middle" x="188.4" y="-497.74" font-family="Helvetica,sans-Serif" font-size="10.00" fill="#000000">plt_generator.</text>
<text text-anchor="middle" x="188.4" y="-486.74" font-family="Helvetica,sans-Serif" font-size="10.00" fill="#000000">sync.</text>
<text text-anchor="middle" x="188.4" y="-475.74" font-family="Helvetica,sans-Serif" font-size="10.00" fill="#000000">bidirectional_sync</text>
</g>
<!-- plt_generator_data&#45;&gt;plt_generator_sync_bidirectional_sync -->
<g id="edge5" class="edge">
<title>plt_generator_data&#45;&gt;plt_generator_sync_bidirectional_sync</title><style>.edge>path:hover{stroke-width:8}</style>
<path fill="none" stroke="black" d="M449.68,-593.62C461.76,-583.79 472.34,-570.48 469.4,-555.23"/>
<path fill="none" stroke="black" d="M469.4,-554.23C460.97,-510.53 315.5,-529.29 272.4,-518.23 266.1,-516.61 259.59,-514.77 253.12,-512.81"/>
<polygon fill="#24d0d0" stroke="black" points="254.32,-509.52 243.73,-509.89 252.24,-516.2 254.32,-509.52"/>
</g>
<!-- plt_generator_validation_validator -->
<g id="node18" class="node">
<title>plt_generator_validation_validator</title><style>.edge>path:hover{stroke-width:8}</style>
<ellipse fill="#40bfc0" stroke="black" cx="340.4" cy="-489.24" rx="59.29" ry="28.98"/>
<text text-anchor="middle" x="340.4" y="-497.74" font-family="Helvetica,sans-Serif" font-size="10.00" fill="#000000">plt_generator.</text>
<text text-anchor="middle" x="340.4" y="-486.74" font-family="Helvetica,sans-Serif" font-size="10.00" fill="#000000">validation.</text>
<text text-anchor="middle" x="340.4" y="-475.74" font-family="Helvetica,sans-Serif" font-size="10.00" fill="#000000">validator</text>
</g>
<!-- plt_generator_data&#45;&gt;plt_generator_validation_validator -->
<g id="edge6" class="edge">
<title>plt_generator_data&#45;&gt;plt_generator_validation_validator</title><style>.edge>path:hover{stroke-width:8}</style>
<path fill="none" stroke="black" d="M469.4,-554.23C467.76,-545.72 430.05,-527.65 395.83,-512.88"/>
<polygon fill="#24d0d0" stroke="black" points="397.33,-509.72 386.75,-509.01 394.58,-516.15 397.33,-509.72"/>
</g>
<!-- plt_generator_data_featview&#45;&gt;plt_generator_data -->
<g id="edge7" class="edge">
<title>plt_generator_data_featview&#45;&gt;plt_generator_data</title><style>.edge>path:hover{stroke-width:8}</style>
<path fill="none" stroke="black" d="M319.75,-675.3C338.79,-663.6 362.11,-649.27 381.5,-637.35"/>
<polygon fill="#3db8b8" stroke="black" points="383.27,-640.37 389.96,-632.15 379.61,-634.4 383.27,-640.37"/>
</g>
<!-- plt_generator_data_illustration -->
<g id="node6" class="node">
<title>plt_generator_data_illustration</title><style>.edge>path:hover{stroke-width:8}</style>
<ellipse fill="#2fdbdb" stroke="black" cx="507.4" cy="-792.63" rx="59.29" ry="28.98"/>
<text text-anchor="middle" x="507.4" y="-801.13" font-family="Helvetica,sans-Serif" font-size="10.00" fill="#000000">plt_generator.</text>
<text text-anchor="middle" x="507.4" y="-790.13" font-family="Helvetica,sans-Serif" font-size="10.00" fill="#000000">data.</text>
<text text-anchor="middle" x="507.4" y="-779.13" font-family="Helvetica,sans-Serif" font-size="10.00" fill="#000000">illustration</text>
</g>
<!-- plt_generator_data_illustration&#45;&gt;plt_generator_data_featview -->
<g id="edge8" class="edge">
<title>plt_generator_data_illustration&#45;&gt;plt_generator_data_featview</title><style>.edge>path:hover{stroke-width:8}</style>
<path fill="none" stroke="black" d="M462.61,-773.24C426.89,-758.57 376.72,-737.97 338.54,-722.29"/>
<polygon fill="#2fdbdb" stroke="black" points="340.09,-719.14 329.51,-718.58 337.43,-725.62 340.09,-719.14"/>
</g>
<!-- plt_generator_data_illustration&#45;&gt;plt_generator_data_langview -->
<g id="edge9" class="edge">
<title>plt_generator_data_illustration&#45;&gt;plt_generator_data_langview</title><style>.edge>path:hover{stroke-width:8}</style>
<path fill="none" stroke="black" d="M483.16,-766.01C473.72,-756.02 462.76,-744.44 452.67,-733.76"/>
<polygon fill="#2fdbdb" stroke="black" points="455.26,-731.41 445.84,-726.55 450.17,-736.22 455.26,-731.41"/>
</g>
<!-- plt_generator_data_illustration&#45;&gt;plt_generator_master_table -->
<g id="edge10" class="edge">
<title>plt_generator_data_illustration&#45;&gt;plt_generator_master_table</title><style>.edge>path:hover{stroke-width:8}</style>
<path fill="none" stroke="black" d="M504.75,-763.19C500.33,-709.5 493.26,-589.7 507.4,-490.24"/>
</g>
<!-- plt_generator_data_langview&#45;&gt;plt_generator_data -->
<g id="edge11" class="edge">
<title>plt_generator_data_langview&#45;&gt;plt_generator_data</title><style>.edge>path:hover{stroke-width:8}</style>
<path fill="none" stroke="black" d="M420.4,-669.61C420.4,-661.92 420.4,-653.52 420.4,-645.62"/>
<polygon fill="#3db8b8" stroke="black" points="423.9,-645.68 420.4,-635.68 416.9,-645.68 423.9,-645.68"/>
</g>
<!-- plt_generator_highlighting -->
<g id="node8" class="node">
<title>plt_generator_highlighting</title><style>.edge>path:hover{stroke-width:8}</style>
<ellipse fill="#40bfc0" stroke="black" cx="59.4" cy="-309.05" rx="59.29" ry="21.43"/>
<text text-anchor="middle" x="59.4" y="-312.05" font-family="Helvetica,sans-Serif" font-size="10.00" fill="#000000">plt_generator.</text>
<text text-anchor="middle" x="59.4" y="-301.05" font-family="Helvetica,sans-Serif" font-size="10.00" fill="#000000">highlighting</text>
</g>
<!-- plt_generator_html_builder -->
<g id="node11" class="node">
<title>plt_generator_html_builder</title><style>.edge>path:hover{stroke-width:8}</style>
<ellipse fill="#3db8b8" stroke="black" cx="96.4" cy="-185.84" rx="59.29" ry="28.98"/>
<text text-anchor="middle" x="96.4" y="-194.34" font-family="Helvetica,sans-Serif" font-size="10.00" fill="#000000">plt_generator.</text>
<text text-anchor="middle" x="96.4" y="-183.34" font-family="Helvetica,sans-Serif" font-size="10.00" fill="#000000">html.</text>
<text text-anchor="middle" x="96.4" y="-172.34" font-family="Helvetica,sans-Serif" font-size="10.00" fill="#000000">builder</text>
</g>
<!-- plt_generator_highlighting&#45;&gt;plt_generator_html_builder -->
<g id="edge12" class="edge">
<title>plt_generator_highlighting&#45;&gt;plt_generator_html_builder</title><style>.edge>path:hover{stroke-width:8}</style>
<path fill="none" stroke="black" d="M65.67,-287.49C70.82,-270.62 78.26,-246.26 84.53,-225.73"/>
<polygon fill="#40bfc0" stroke="black" points="87.85,-226.83 87.42,-216.24 81.16,-224.78 87.85,-226.83"/>
</g>
<!-- plt_generator_highlighting_highlighter -->
<g id="node9" class="node">
<title>plt_generator_highlighting_highlighter</title><style>.edge>path:hover{stroke-width:8}</style>
<ellipse fill="#40bfc0" stroke="black" cx="59.4" cy="-395.25" rx="59.29" ry="28.98"/>
<text text-anchor="middle" x="59.4" y="-403.75" font-family="Helvetica,sans-Serif" font-size="10.00" fill="#000000">plt_generator.</text>
<text text-anchor="middle" x="59.4" y="-392.75" font-family="Helvetica,sans-Serif" font-size="10.00" fill="#000000">highlighting.</text>
<text text-anchor="middle" x="59.4" y="-381.75" font-family="Helvetica,sans-Serif" font-size="10.00" fill="#000000">highlighter</text>
</g>
<!-- plt_generator_highlighting_highlighter&#45;&gt;plt_generator_highlighting -->
<g id="edge13" class="edge">
<title>plt_generator_highlighting_highlighter&#45;&gt;plt_generator_highlighting</title><style>.edge>path:hover{stroke-width:8}</style>
<path fill="none" stroke="black" d="M59.4,-366.21C59.4,-358.53 59.4,-350.13 59.4,-342.23"/>
<polygon fill="#40bfc0" stroke="black" points="62.9,-342.29 59.4,-332.29 55.9,-342.29 62.9,-342.29"/>
</g>
<!-- plt_generator_html -->
<g id="node10" class="node">
<title>plt_generator_html</title><style>.edge>path:hover{stroke-width:8}</style>
<ellipse fill="#40bfc0" stroke="black" cx="96.4" cy="-99.64" rx="59.29" ry="21.43"/>
<text text-anchor="middle" x="96.4" y="-102.64" font-family="Helvetica,sans-Serif" font-size="10.00" fill="#000000">plt_generator.</text>
<text text-anchor="middle" x="96.4" y="-91.64" font-family="Helvetica,sans-Serif" font-size="10.00" fill="#000000">html</text>
</g>
<!-- plt_generator_html&#45;&gt;plt_generator_cli -->
<g id="edge14" class="edge">
<title>plt_generator_html&#45;&gt;plt_generator_cli</title><style>.edge>path:hover{stroke-width:8}</style>
<path fill="none" stroke="black" d="M107.92,-78.16C112.39,-70.21 117.6,-60.95 122.48,-52.28"/>
<polygon fill="#40bfc0" stroke="black" points="125.4,-54.24 127.25,-43.8 119.3,-50.8 125.4,-54.24"/>
</g>
<!-- plt_generator_html_builder&#45;&gt;plt_generator_html -->
<g id="edge15" class="edge">
<title>plt_generator_html_builder&#45;&gt;plt_generator_html</title><style>.edge>path:hover{stroke-width:8}</style>
<path fill="none" stroke="black" d="M96.4,-156.81C96.4,-149.12 96.4,-140.72 96.4,-132.82"/>
<polygon fill="#3db8b8" stroke="black" points="99.9,-132.88 96.4,-122.88 92.9,-132.88 99.9,-132.88"/>
</g>
<!-- plt_generator_master_table&#45;&gt;plt_generator_cli -->
<g id="edge16" class="edge">
<title>plt_generator_master_table&#45;&gt;plt_generator_cli</title><style>.edge>path:hover{stroke-width:8}</style>
<path fill="none" stroke="black" d="M183.4,-250.84C156.28,-223.44 174.46,-115.63 164.4,-78.43 162.12,-69.99 158.74,-61.21 155.2,-53.16"/>
<polygon fill="#2bacac" stroke="black" points="158.39,-51.71 151,-44.11 152.04,-54.65 158.39,-51.71"/>
</g>
<!-- plt_generator_master_table&#45;&gt;plt_generator_html_builder -->
<g id="edge17" class="edge">
<title>plt_generator_master_table&#45;&gt;plt_generator_html_builder</title><style>.edge>path:hover{stroke-width:8}</style>
<path fill="none" stroke="black" d="M235.8,-290.82C218.93,-280.88 198.71,-267.3 183.4,-251.84"/>
<path fill="none" stroke="black" d="M183.4,-250.84C170.74,-238.05 155.34,-225.85 141.04,-215.6"/>
<polygon fill="#2bacac" stroke="black" points="143.28,-212.9 133.08,-210.03 139.27,-218.63 143.28,-212.9"/>
</g>
<!-- plt_generator_sync -->
<g id="node13" class="node">
<title>plt_generator_sync</title><style>.edge>path:hover{stroke-width:8}</style>
<ellipse fill="#40bfc0" stroke="black" cx="196.4" cy="-395.25" rx="59.29" ry="21.43"/>
<text text-anchor="middle" x="196.4" y="-398.25" font-family="Helvetica,sans-Serif" font-size="10.00" fill="#000000">plt_generator.</text>
<text text-anchor="middle" x="196.4" y="-387.25" font-family="Helvetica,sans-Serif" font-size="10.00" fill="#000000">sync</text>
</g>
<!-- plt_generator_sync&#45;&gt;plt_generator_master_table -->
<g id="edge18" class="edge">
<title>plt_generator_sync&#45;&gt;plt_generator_master_table</title><style>.edge>path:hover{stroke-width:8}</style>
<path fill="none" stroke="black" d="M213.46,-374.3C222.61,-363.6 234.03,-350.24 244.09,-338.47"/>
<polygon fill="#40bfc0" stroke="black" points="246.63,-340.89 250.47,-331.01 241.31,-336.34 246.63,-340.89"/>
</g>
<!-- plt_generator_sync_bidirectional_sync&#45;&gt;plt_generator_sync -->
<g id="edge19" class="edge">
<title>plt_generator_sync_bidirectional_sync&#45;&gt;plt_generator_sync</title><style>.edge>path:hover{stroke-width:8}</style>
<path fill="none" stroke="black" d="M190.86,-459.89C191.73,-449.95 192.7,-438.71 193.59,-428.48"/>
<polygon fill="#40bfc0" stroke="black" points="197.08,-428.83 194.46,-418.57 190.1,-428.23 197.08,-428.83"/>
</g>
<!-- plt_generator_utils -->
<g id="node15" class="node">
<title>plt_generator_utils</title><style>.edge>path:hover{stroke-width:8}</style>
<ellipse fill="#4cb3b3" stroke="black" cx="564.4" cy="-878.83" rx="59.29" ry="21.43"/>
<text text-anchor="middle" x="564.4" y="-881.83" font-family="Helvetica,sans-Serif" font-size="10.00" fill="#000000">plt_generator.</text>
<text text-anchor="middle" x="564.4" y="-870.83" font-family="Helvetica,sans-Serif" font-size="10.00" fill="#000000">utils</text>
</g>
<!-- plt_generator_utils_path_manager -->
<g id="node16" class="node">
<title>plt_generator_utils_path_manager</title><style>.edge>path:hover{stroke-width:8}</style>
<ellipse fill="#47c2c2" stroke="black" cx="564.4" cy="-965.04" rx="61.54" ry="28.98"/>
<text text-anchor="middle" x="564.4" y="-973.54" font-family="Helvetica,sans-Serif" font-size="10.00" fill="#000000">plt_generator.</text>
<text text-anchor="middle" x="564.4" y="-962.54" font-family="Helvetica,sans-Serif" font-size="10.00" fill="#000000">utils.</text>
<text text-anchor="middle" x="564.4" y="-951.54" font-family="Helvetica,sans-Serif" font-size="10.00" fill="#000000">path_manager</text>
</g>
<!-- plt_generator_utils_path_manager&#45;&gt;plt_generator_utils -->
<g id="edge20" class="edge">
<title>plt_generator_utils_path_manager&#45;&gt;plt_generator_utils</title><style>.edge>path:hover{stroke-width:8}</style>
<path fill="none" stroke="black" d="M564.4,-936C564.4,-928.31 564.4,-919.91 564.4,-912.01"/>
<polygon fill="#47c2c2" stroke="black" points="567.9,-912.07 564.4,-902.07 560.9,-912.07 567.9,-912.07"/>
</g>
<!-- plt_generator_validation -->
<g id="node17" class="node">
<title>plt_generator_validation</title><style>.edge>path:hover{stroke-width:8}</style>
<ellipse fill="#40bfc0" stroke="black" cx="340.4" cy="-395.25" rx="59.29" ry="21.43"/>
<text text-anchor="middle" x="340.4" y="-398.25" font-family="Helvetica,sans-Serif" font-size="10.00" fill="#000000">plt_generator.</text>
<text text-anchor="middle" x="340.4" y="-387.25" font-family="Helvetica,sans-Serif" font-size="10.00" fill="#000000">validation</text>
</g>
<!-- plt_generator_validation&#45;&gt;plt_generator_master_table -->
<g id="edge21" class="edge">
<title>plt_generator_validation&#45;&gt;plt_generator_master_table</title><style>.edge>path:hover{stroke-width:8}</style>
<path fill="none" stroke="black" d="M323.33,-374.3C314.19,-363.6 302.76,-350.24 292.7,-338.47"/>
<polygon fill="#40bfc0" stroke="black" points="295.48,-336.34 286.32,-331.01 290.16,-340.89 295.48,-336.34"/>
</g>
<!-- plt_generator_validation_validator&#45;&gt;plt_generator_validation -->
<g id="edge22" class="edge">
<title>plt_generator_validation_validator&#45;&gt;plt_generator_validation</title><style>.edge>path:hover{stroke-width:8}</style>
<path fill="none" stroke="black" d="M340.4,-459.89C340.4,-449.95 340.4,-438.71 340.4,-428.48"/>
<polygon fill="#40bfc0" stroke="black" points="343.9,-428.57 340.4,-418.57 336.9,-428.57 343.9,-428.57"/>
</g>
<!-- pygments -->
<g id="node19" class="node">
<title>pygments</title><style>.edge>path:hover{stroke-width:8}</style>
<ellipse fill="#7f40c0" stroke="black" cx="59.4" cy="-612.44" rx="38.03" ry="18"/>
<text text-anchor="middle" x="59.4" y="-609.94" font-family="Helvetica,sans-Serif" font-size="10.00" fill="#ffffff">pygments</text>
</g>
<!-- pygments&#45;&gt;plt_generator_highlighting_highlighter -->
<g id="edge23" class="edge">
<title>pygments&#45;&gt;plt_generator_highlighting_highlighter</title><style>.edge>path:hover{stroke-width:8}</style>
<path fill="none" stroke="black" d="M59.4,-594.19C59.4,-560.08 59.4,-483.22 59.4,-435.94"/>
<polygon fill="#7f40c0" stroke="black" points="62.9,-436.12 59.4,-426.12 55.9,-436.12 62.9,-436.12"/>
</g>
</g>
</svg>
